<?xml version="1.0" encoding="utf-8"?>
<!-- Generator: Adobe Illustrator 23.0.6, SVG Export Plug-In . SVG Version: 6.00 Build 0)  -->
<svg version="1.1" id="Isolation_Mode" xmlns="http://www.w3.org/2000/svg" xmlns:xlink="http://www.w3.org/1999/xlink" x="0px"
	 y="0px" viewBox="0 0 253.66 188.6" style="enable-background:new 0 0 253.66 188.6;" xml:space="preserve">
<style type="text/css">
	.st0{fill-rule:evenodd;clip-rule:evenodd;fill:#FFFFFF;}
	.st1{fill:#FFFFFF;}
	.st2{fill-rule:evenodd;clip-rule:evenodd;fill:#5F9E45;}
	.st3{fill-rule:evenodd;clip-rule:evenodd;fill:#8DC63F;}
</style>
<g>
	<polygon class="st0" points="51.4,42.24 51.4,84.55 40.26,84.55 6.93,47.57 6.93,84.55 0.12,84.55 0.12,42.24 11.19,42.24 
		44.59,79.4 44.59,42.24 	"/>
	<path class="st0" d="M196.4,42.24h7.12l-20.87,42.31h-9.47l-21.05-42.31h7.07l15.7,30.62l1.54,3.28c0.59,1.26,1.06,2.35,1.43,3.26
		h0.16c0.88-2.09,1.83-4.22,2.88-6.45L196.4,42.24z"/>
	<polygon class="st0" points="184.1,116.22 184.1,158.39 173.3,158.39 140.98,121.53 140.98,158.39 134.38,158.39 134.38,116.22 
		145.11,116.22 177.5,153.27 177.5,116.22 	"/>
	<path class="st0" d="M100.65,149.48H71.21l-4.47,8.92H59.8l21.31-42.17h9.22l21.74,42.17h-6.87L100.65,149.48z M98.74,144.59
		l-12.9-24.46l-12.75,24.46H98.74z"/>
	<path class="st0" d="M241.87,75.6h-29.76l-4.51,8.94h-7.03l21.54-42.31h9.32l21.97,42.31h-6.95L241.87,75.6z M239.95,70.69
		L226.9,46.15l-12.88,24.53H239.95z"/>
	<polygon class="st0" points="6.78,116.21 6.78,152.72 37.47,152.72 37.47,158.39 0,158.39 0,116.21 	"/>
	<path class="st0" d="M205.14,158.4v-42.18h26.47c8.57,0,14.37,1.35,17.38,3.99c3.04,2.64,4.57,7.73,4.57,15.26
		c0,9.14-1.37,15.27-4.07,18.3c-2.71,3.08-8.09,4.63-16.17,4.63H205.14z M211.93,154.41L211.93,154.41h18.23
		c7.14,0,11.76-1.03,13.82-3.03c2.06-2.03,3.09-6.54,3.09-13.53c0-7.7-0.89-12.53-2.68-14.58c-1.79-2.08-6.08-3.06-12.85-3.06h-19.6
		V154.41z"/>
	<path class="st1" d="M8.29,182.44v0.51c0,0.21-0.03,0.37-0.1,0.5c-0.07,0.14-0.15,0.24-0.22,0.3l-0.24,0.16l-0.25,0.13
		c-0.22,0.04-0.46,0.09-0.71,0.09l-0.87,0.03c-0.86-0.08-2.41,0.25-3.21-0.32l-0.1-0.1c-0.11-0.1-0.2-0.21-0.27-0.34
		c-0.07-0.13-0.13-0.27-0.18-0.43c-0.04-0.17-0.07-0.29-0.09-0.38c-0.03-0.11-0.04-0.21-0.04-0.33c-0.01-0.12-0.01-0.27-0.01-0.46
		c-0.02-0.18-0.02-0.36-0.02-0.54v-3.69c0-0.62,0.16-1.11,0.45-1.44c0.18-0.14,0.34-0.24,0.51-0.3c0.18-0.06,0.32-0.1,0.46-0.13
		c0.14-0.04,0.29-0.06,0.42-0.08c0.27-0.03,0.61-0.05,1.02-0.05l0.95-0.03h0.24l0.63,0.03l0.48,0.04c0.25,0.05,0.44,0.12,0.6,0.25
		c0.14,0.12,0.24,0.27,0.29,0.49c0.07,0.26,0.1,0.57,0.1,0.95v0.73h2.02v-0.93l-0.04-0.44l-0.05-0.44l-0.1-0.46
		c-0.14-0.52-0.44-0.96-0.88-1.31c-0.25-0.18-0.5-0.32-0.77-0.39c-0.18-0.07-0.36-0.11-0.53-0.14c-0.17-0.05-0.34-0.06-0.52-0.06
		l-0.71-0.05H5.21l-0.68,0.05H3.83l-1.17,0.14c-0.78,0.17-1.39,0.49-1.85,1.02c-0.14,0.16-0.28,0.34-0.37,0.52
		c-0.1,0.17-0.17,0.37-0.23,0.6c-0.08,0.22-0.13,0.46-0.16,0.71C0.02,177.11,0,177.38,0,177.67v4.45c0,0.57,0.1,1.14,0.31,1.68
		c0.21,0.52,0.46,0.91,0.76,1.15c0.27,0.21,0.49,0.37,0.68,0.47c0.22,0.14,0.44,0.25,0.66,0.3l0.36,0.07
		c0.03,0.02,0.07,0.03,0.13,0.04c0.07,0.02,0.12,0.03,0.2,0.03c0.02,0.01,0.09,0.02,0.15,0.04h2.91l0.49-0.04h0.54l0.86-0.13
		c0.6-0.12,1.08-0.35,1.44-0.71c0.37-0.35,0.58-0.74,0.67-1.18c0.05-0.1,0.07-0.19,0.09-0.28c0.01-0.08,0.02-0.14,0.03-0.21v-0.21
		c0,0,0.01-0.1,0.02-0.18v-1.58H8.32L8.29,182.44z M20.48,178.89H14v-4.96h-2.04v11.83H14v-5.2h6.48v5.2h2v-11.83h-2V178.89z
		 M34.33,175.9c-0.1-0.26-0.17-0.45-0.26-0.58l-0.2-0.33c-0.28-0.37-0.66-0.63-1.16-0.78l-0.41-0.14l-0.37-0.08
		c-0.23-0.05-0.47-0.08-0.72-0.08l-1-0.07h-1.14c-0.61,0-1.17,0.02-1.63,0.07c-0.47,0.05-0.91,0.15-1.3,0.32
		c-0.24,0.12-0.44,0.24-0.62,0.36c-0.15,0.14-0.29,0.28-0.42,0.48c-0.21,0.31-0.37,0.61-0.45,0.91l-0.09,0.36
		c-0.02,0.08-0.04,0.13-0.04,0.17c-0.01,0.04-0.02,0.08-0.02,0.15c-0.02,0.07-0.02,0.17-0.02,0.3l-0.03,0.57V182
		c0,1.33,0.3,2.29,0.89,2.87c0.42,0.42,0.93,0.69,1.5,0.82c0.59,0.11,1.23,0.18,1.94,0.18h1.39l0.71-0.02l0.68-0.06
		c0.52-0.07,0.96-0.17,1.32-0.33c0.47-0.2,0.79-0.47,1.02-0.82c0.13-0.19,0.23-0.37,0.3-0.54l0.07-0.13l0.04-0.14
		c0.04-0.1,0.07-0.2,0.09-0.29c0.12-0.34,0.18-0.86,0.18-1.53v-4.62l-0.05-0.58C34.46,176.42,34.4,176.11,34.33,175.9 M32.59,182.06
		c0,0.78-0.13,1.33-0.4,1.65c-0.18,0.21-0.43,0.34-0.77,0.37L31,184.14c-1.06-0.03-2.31,0.09-3.34-0.04l-0.26-0.05
		c-0.29-0.07-0.49-0.21-0.61-0.41c-0.24-0.42-0.35-0.97-0.35-1.69v-4.11l0.05-0.78l0.02-0.25l0.04-0.24l0.17-0.42
		c0.13-0.17,0.27-0.3,0.44-0.38c0.24-0.1,0.46-0.15,0.69-0.15c0.25-0.04,0.61-0.08,1.12-0.08h0.46l0.48,0.03h0.34l0.91,0.04
		c0.46,0.05,0.8,0.18,0.97,0.38c0.16,0.16,0.27,0.39,0.35,0.67c0.04,0.14,0.07,0.3,0.09,0.46c0.02,0.17,0.02,0.36,0.02,0.59V182.06z
		 M50.91,182.44v0.51c0,0.21-0.04,0.37-0.09,0.5c-0.08,0.14-0.15,0.24-0.22,0.3l-0.25,0.16l-0.26,0.13
		c-0.21,0.04-0.44,0.09-0.69,0.09l-0.87,0.03c-0.8-0.08-2.46,0.24-3.22-0.32l-0.1-0.1c-0.12-0.1-0.21-0.21-0.28-0.34
		c-0.07-0.13-0.14-0.27-0.17-0.43c-0.05-0.17-0.08-0.29-0.1-0.38c-0.02-0.11-0.03-0.21-0.03-0.33c0-0.12-0.01-0.27-0.01-0.46
		c-0.01-0.18-0.01-0.36-0.01-0.54v-3.69c0-0.62,0.16-1.11,0.45-1.44c0.17-0.14,0.35-0.24,0.52-0.3c0.15-0.06,0.32-0.1,0.46-0.13
		c0.15-0.04,0.29-0.06,0.42-0.08c0.27-0.03,0.61-0.05,1.01-0.05l0.95-0.03h0.25l0.62,0.03l0.46,0.04c0.25,0.05,0.46,0.12,0.61,0.25
		c0.14,0.12,0.24,0.27,0.29,0.49c0.07,0.26,0.1,0.57,0.1,0.95v0.73h2.02v-0.93l-0.04-0.44l-0.05-0.44l-0.12-0.46
		c-0.14-0.52-0.44-0.96-0.88-1.31c-0.24-0.18-0.5-0.32-0.77-0.39c-0.19-0.07-0.36-0.11-0.53-0.14c-0.18-0.05-0.34-0.06-0.52-0.06
		l-0.72-0.05h-1.33l-0.67,0.05h-0.69l-1.19,0.14c-0.78,0.17-1.39,0.49-1.85,1.02c-0.15,0.16-0.27,0.34-0.36,0.52
		c-0.1,0.17-0.17,0.37-0.24,0.6c-0.08,0.22-0.12,0.46-0.15,0.71c-0.04,0.24-0.05,0.51-0.05,0.79v4.45c0,0.57,0.11,1.14,0.32,1.68
		c0.2,0.52,0.47,0.91,0.76,1.15c0.27,0.21,0.48,0.37,0.67,0.47c0.23,0.14,0.43,0.25,0.67,0.3l0.34,0.07
		c0.03,0.02,0.07,0.03,0.14,0.04c0.06,0.02,0.13,0.03,0.19,0.03c0.04,0.01,0.1,0.02,0.17,0.04h2.9l0.49-0.04h0.52l0.89-0.13
		c0.6-0.12,1.08-0.35,1.44-0.71c0.36-0.35,0.57-0.74,0.65-1.18c0.05-0.1,0.08-0.19,0.08-0.28c0.02-0.08,0.02-0.14,0.04-0.21v-0.21
		c0-0.04,0.01-0.1,0.03-0.18v-1.58h-1.99L50.91,182.44z M62.84,182l-0.03,0.69l-0.06,0.51l-0.06,0.21l-0.06,0.14l-0.07,0.1
		l-0.12,0.12c-0.2,0.16-0.42,0.28-0.75,0.31l-0.43,0.07h-0.33l-0.17,0.04h-0.64c-0.04-0.02-0.12-0.03-0.18-0.03
		c-0.07-0.01-0.15-0.01-0.24-0.01l-0.35,0.04c-0.27,0-0.54-0.02-0.86-0.04l-0.7-0.07c-0.31-0.05-0.58-0.13-0.77-0.25
		c-0.29-0.2-0.43-0.66-0.43-1.42v-8.49h-1.99v8.5l0.03,0.61l0.1,0.54c0.05,0.19,0.12,0.37,0.18,0.56c0.08,0.15,0.12,0.24,0.13,0.25
		c0.04,0.08,0.08,0.13,0.13,0.21l0.19,0.26l0.18,0.19l0.21,0.17l0.13,0.07l0.11,0.05c0.47,0.26,0.93,0.41,1.4,0.46
		c0.45,0.06,1.13,0.08,2.05,0.08l1.33-0.03l1.12-0.09c0.74-0.11,1.35-0.34,1.82-0.66c0.74-0.62,1.12-1.56,1.12-2.82v-8.35h-2.03V182
		z M76.71,175.9c-0.09-0.26-0.17-0.45-0.26-0.58l-0.2-0.33c-0.28-0.37-0.66-0.63-1.16-0.78l-0.4-0.14l-0.37-0.08
		c-0.23-0.05-0.46-0.08-0.72-0.08l-1-0.07h-1.15c-0.62,0-1.16,0.02-1.63,0.07c-0.48,0.05-0.91,0.15-1.3,0.32
		c-0.24,0.12-0.45,0.24-0.61,0.36c-0.16,0.14-0.3,0.28-0.43,0.48c-0.23,0.31-0.37,0.61-0.45,0.91l-0.1,0.36
		c-0.03,0.08-0.04,0.13-0.05,0.17c-0.01,0.04-0.01,0.08-0.02,0.15c0,0.07-0.01,0.17-0.01,0.3l-0.02,0.57V182
		c0,1.33,0.29,2.29,0.89,2.87c0.43,0.42,0.92,0.69,1.5,0.82c0.58,0.11,1.21,0.18,1.93,0.18h1.39l0.73-0.02l0.67-0.06
		c0.52-0.07,0.95-0.17,1.32-0.33c0.46-0.2,0.8-0.47,1.03-0.82c0.11-0.19,0.22-0.37,0.29-0.54l0.07-0.13l0.05-0.14
		c0.05-0.1,0.07-0.2,0.09-0.29c0.11-0.34,0.17-0.86,0.17-1.53v-4.62l-0.05-0.58C76.85,176.42,76.8,176.11,76.71,175.9 M74.99,182.06
		c0,0.78-0.14,1.33-0.4,1.65c-0.18,0.21-0.43,0.34-0.77,0.37l-0.44,0.06c-1.06-0.03-2.31,0.09-3.33-0.04l-0.26-0.05
		c-0.28-0.07-0.48-0.21-0.6-0.41c-0.25-0.42-0.37-0.97-0.37-1.69v-4.11l0.06-0.78l0.03-0.25l0.04-0.24l0.18-0.42
		c0.12-0.17,0.27-0.3,0.43-0.38c0.23-0.1,0.46-0.15,0.7-0.15c0.24-0.04,0.61-0.08,1.11-0.08h0.46l0.48,0.03h0.34l0.9,0.04
		c0.46,0.05,0.8,0.18,0.99,0.38c0.17,0.16,0.28,0.39,0.33,0.67c0.04,0.14,0.07,0.3,0.09,0.46c0.02,0.17,0.03,0.36,0.03,0.59V182.06z
		 M71.83,172.06l2.08,0.99l0.57-0.92l-2.65-1.55l-2.66,1.55l0.52,0.91L71.83,172.06z M112.6,172.06l2.09,0.99l0.57-0.92l-2.65-1.55
		l-2.66,1.55l0.52,0.91L112.6,172.06z M70.89,188.6h2.07v-1.95h-2.07V188.6z M86.89,182.44v0.51c0,0.21-0.03,0.37-0.1,0.5
		c-0.07,0.14-0.14,0.24-0.22,0.3l-0.24,0.16l-0.25,0.13c-0.22,0.04-0.46,0.09-0.7,0.09l-0.88,0.03c-0.8-0.08-2.45,0.24-3.21-0.32
		l-0.11-0.1c-0.11-0.1-0.2-0.21-0.27-0.34c-0.07-0.13-0.13-0.27-0.17-0.43c-0.06-0.17-0.08-0.29-0.11-0.38
		c-0.02-0.11-0.03-0.21-0.03-0.33c-0.01-0.12-0.01-0.27-0.01-0.46c-0.01-0.18-0.01-0.36-0.01-0.54v-3.69c0-0.62,0.16-1.11,0.46-1.44
		c0.16-0.14,0.34-0.24,0.52-0.3c0.16-0.06,0.31-0.1,0.46-0.13c0.15-0.04,0.29-0.06,0.42-0.08c0.28-0.03,0.61-0.05,1-0.05l0.96-0.03
		h0.25l0.61,0.03l0.48,0.04c0.25,0.05,0.45,0.12,0.6,0.25c0.15,0.12,0.24,0.27,0.28,0.49c0.07,0.26,0.11,0.57,0.11,0.95v0.73h2.01
		v-0.93l-0.03-0.44l-0.06-0.44l-0.1-0.46c-0.15-0.52-0.44-0.96-0.89-1.31c-0.24-0.18-0.5-0.32-0.77-0.39
		c-0.18-0.07-0.35-0.11-0.52-0.14c-0.16-0.05-0.34-0.06-0.51-0.06l-0.73-0.05H83.8l-0.67,0.05h-0.71l-1.18,0.14
		c-0.77,0.17-1.39,0.49-1.85,1.02c-0.14,0.16-0.27,0.34-0.37,0.52c-0.1,0.17-0.17,0.37-0.23,0.6c-0.08,0.22-0.13,0.46-0.16,0.71
		c-0.03,0.24-0.05,0.51-0.05,0.79v4.45c0,0.57,0.11,1.14,0.32,1.68c0.2,0.52,0.46,0.91,0.75,1.15c0.26,0.21,0.48,0.37,0.67,0.47
		c0.23,0.14,0.45,0.25,0.67,0.3l0.35,0.07c0.03,0.02,0.07,0.03,0.13,0.04c0.06,0.02,0.13,0.03,0.19,0.03
		c0.04,0.01,0.11,0.02,0.17,0.04h2.9l0.49-0.04h0.53l0.88-0.13c0.61-0.12,1.08-0.35,1.45-0.71c0.35-0.35,0.57-0.74,0.66-1.18
		c0.04-0.1,0.08-0.19,0.08-0.28c0.01-0.08,0.03-0.14,0.05-0.21v-0.21c0,0,0.01-0.1,0.02-0.18v-1.58h-1.98L86.89,182.44z
		 M106.01,181.03c-0.05-0.17-0.08-0.3-0.08-0.35c-0.15-0.53-0.43-0.93-0.89-1.21c-0.21-0.15-0.39-0.22-0.56-0.28
		c-0.04-0.02-0.1-0.04-0.17-0.04c-0.06-0.02-0.1-0.03-0.14-0.04l-0.29-0.06l-0.83-0.11c-0.28-0.03-0.49-0.04-0.63-0.04h-1.83
		l-0.48-0.02l-0.46-0.04c-0.3-0.04-0.53-0.13-0.69-0.2c-0.19-0.11-0.33-0.27-0.41-0.5c-0.09-0.24-0.13-0.55-0.13-0.97l0.03-0.49
		l0.04-0.38l0.11-0.27l0.11-0.1c0.17-0.15,0.45-0.23,0.81-0.3c0.35-0.05,0.82-0.09,1.38-0.09h0.33l1.24,0.04l0.19,0.02l0.19,0.02
		l0.37,0.07l0.24,0.13l0.14,0.11c0.12,0.12,0.19,0.25,0.2,0.42l0.07,0.46l0.03,0.79h1.99v-0.61c0-0.57-0.09-1.06-0.26-1.47
		c-0.15-0.42-0.41-0.76-0.74-1.01c-0.32-0.26-0.79-0.44-1.41-0.52c-0.63-0.11-1.37-0.15-2.26-0.15c-0.89,0-1.65,0.05-2.28,0.15
		c-0.63,0.09-1.15,0.29-1.55,0.59c-0.67,0.54-1,1.48-1,2.86l0.01,0.4l0.04,0.37l0.1,0.39l0.07,0.24c0.17,0.45,0.42,0.78,0.76,1.01
		l0.23,0.18c1.59,0.71,3.39,0.45,5.08,0.61l0.61,0.1c0.22,0.01,0.39,0.09,0.51,0.2c0.12,0.12,0.21,0.26,0.25,0.45
		c0.06,0.19,0.09,0.46,0.09,0.78v0.2c0,0.37-0.04,0.68-0.1,0.95c-0.06,0.25-0.18,0.43-0.34,0.52l-0.3,0.15
		c-0.07,0.04-0.13,0.06-0.17,0.06l-0.2,0.03l-0.53,0.08l-0.59,0.03l-0.13-0.03h-0.86l-0.7-0.02h-0.94l-0.2-0.04l-0.2-0.08
		l-0.15-0.12c-0.16-0.12-0.24-0.28-0.26-0.42l-0.07-0.41v-0.28l-0.04-0.27v-0.26c0.03-0.09,0.04-0.21,0.04-0.38v-0.22h-2.01
		l-0.03,0.97v0.4l0.03,0.38l0.08,0.45l0.1,0.23c0.16,0.46,0.43,0.81,0.78,1.08c0.4,0.28,0.88,0.48,1.39,0.57l0.43,0.07l0.29,0.03
		h0.09l0.42,0.04h1.02c0.78,0,1.53-0.04,2.27-0.12c0.72-0.07,1.29-0.26,1.7-0.48c0.43-0.29,0.73-0.7,0.91-1.21
		c0.1-0.27,0.18-0.55,0.21-0.82c0.05-0.26,0.07-0.6,0.07-0.99v-0.42l-0.04-0.4L106.01,181.03z M117.37,175.9
		c-0.09-0.26-0.17-0.45-0.24-0.58l-0.2-0.33c-0.28-0.37-0.67-0.63-1.17-0.78l-0.4-0.14l-0.37-0.08c-0.22-0.05-0.48-0.08-0.73-0.08
		l-1-0.07h-1.14c-0.62,0-1.15,0.02-1.62,0.07c-0.47,0.05-0.91,0.15-1.3,0.32c-0.25,0.12-0.45,0.24-0.62,0.36
		c-0.17,0.14-0.31,0.28-0.42,0.48c-0.22,0.31-0.37,0.61-0.45,0.91l-0.09,0.36c-0.03,0.08-0.04,0.13-0.04,0.13
		c-0.01,0.07-0.01,0.12-0.02,0.18c-0.01,0.07-0.02,0.17-0.02,0.3l-0.01,0.57V182c0,1.33,0.29,2.29,0.88,2.87
		c0.43,0.42,0.93,0.69,1.51,0.82c0.58,0.11,1.23,0.18,1.93,0.18h1.39l0.73-0.02l0.66-0.06c0.51-0.07,0.95-0.17,1.31-0.33
		c0.45-0.2,0.8-0.47,1.03-0.82c0.13-0.19,0.22-0.37,0.29-0.54l0.07-0.13l0.04-0.14c0.04-0.1,0.07-0.2,0.09-0.29
		c0.12-0.34,0.18-0.86,0.18-1.53v-4.62l-0.05-0.58C117.53,176.42,117.44,176.11,117.37,175.9 M115.65,182.06
		c0,0.78-0.14,1.33-0.4,1.65c-0.19,0.21-0.43,0.34-0.77,0.37l-0.43,0.06c-1.05-0.03-2.31,0.1-3.33-0.04l-0.27-0.05
		c-0.29-0.07-0.48-0.21-0.61-0.41c-0.23-0.42-0.35-0.97-0.35-1.69v-4.11l0.05-0.78l0.02-0.25l0.04-0.24l0.17-0.42
		c0.12-0.17,0.27-0.3,0.45-0.38c0.24-0.1,0.46-0.15,0.68-0.15c0.25-0.04,0.61-0.08,1.12-0.08h0.47l0.47,0.03h0.35l0.9,0.04
		c0.48,0.05,0.79,0.18,0.99,0.38c0.17,0.16,0.28,0.39,0.34,0.67c0.04,0.14,0.07,0.3,0.09,0.46c0.01,0.17,0.02,0.36,0.02,0.59V182.06
		z M112.13,170.07l-0.99-1.06l-2.93,1.76l0.76,0.89L112.13,170.07z M128.7,183.51l-6.32-9.57h-2.79v11.83h2.04v-9.47l6.36,9.47
		l2.75-0.01v-11.83h-2.03V183.51z M137.46,181.28h3.89v1.12c0,0.36-0.03,0.65-0.09,0.89c-0.08,0.25-0.17,0.41-0.29,0.5
		c-0.13,0.08-0.24,0.14-0.36,0.19c-0.07,0.01-0.12,0.03-0.19,0.05c-0.06,0.01-0.14,0.02-0.2,0.02l-0.41,0.08l-0.28,0.03
		c-0.03,0-0.07,0.01-0.12,0.04h-0.56c-0.08-0.03-0.13-0.04-0.18-0.04h-0.99l-0.32,0.04l-0.51-0.04l-0.72-0.1l-0.47-0.17
		c-0.14-0.05-0.25-0.11-0.32-0.18c-0.21-0.15-0.37-0.36-0.47-0.63c-0.09-0.28-0.13-0.63-0.13-1.06v-4.52l0.03-0.33l0.05-0.36
		l0.04-0.26c0.11-0.3,0.24-0.51,0.4-0.61c0.18-0.13,0.41-0.23,0.67-0.28c0.28-0.03,0.6-0.07,0.96-0.07l1.51-0.03l1.2,0.03
		c0.04,0,0.12,0,0.21,0.01c0.08,0,0.22,0.02,0.39,0.04l0.3,0.05c0.28,0.06,0.46,0.16,0.59,0.27c0.08,0.08,0.15,0.21,0.18,0.39
		c0.03,0.19,0.06,0.43,0.06,0.72v0.77h1.99v-1.13c0-0.14,0-0.27-0.02-0.35c0-0.11-0.02-0.21-0.04-0.32
		c-0.05-0.21-0.11-0.39-0.17-0.56c-0.16-0.35-0.41-0.65-0.72-0.9c-0.61-0.47-1.45-0.71-2.51-0.71h-3.28c-0.17,0-0.32,0.01-0.44,0.02
		c-0.12,0-0.27,0.02-0.42,0.04c-0.14,0.03-0.27,0.05-0.4,0.09c-0.12,0.02-0.23,0.06-0.35,0.09c-0.51,0.18-0.9,0.41-1.21,0.72
		c-0.68,0.71-1.03,1.77-1.03,3.19v4.28l0.04,0.52l0.08,0.48l0.11,0.4c0.23,0.58,0.5,1.01,0.83,1.31c0.29,0.28,0.61,0.46,0.95,0.57
		c0.17,0.07,0.35,0.14,0.53,0.16c0.18,0.03,0.29,0.07,0.36,0.08c0.05,0,0.16,0.01,0.28,0.01c0.43,0.05,0.87,0.08,1.32,0.08h0.97
		l0.9-0.04h1.18l0.31-0.04l0.62-0.12c0.21-0.07,0.4-0.14,0.58-0.21l0.26-0.13l0.25-0.16c0.36-0.28,0.64-0.65,0.81-1.11
		c0.17-0.46,0.25-1.04,0.25-1.71v-2.78h-5.88V181.28z M160.74,180c-0.16-0.2-0.39-0.35-0.68-0.48l0.2-0.14
		c0.28-0.22,0.47-0.54,0.61-0.95c0.08-0.21,0.13-0.43,0.15-0.68c0.03-0.23,0.05-0.51,0.05-0.81c0-0.48-0.06-0.9-0.18-1.25
		c-0.06-0.2-0.14-0.37-0.21-0.53c-0.08-0.15-0.16-0.3-0.28-0.43c-0.47-0.53-1.21-0.79-2.24-0.79h-6.69v11.83h6.87
		c0.69,0,1.29-0.14,1.77-0.42c0.48-0.28,0.81-0.67,1.01-1.13l0.14-0.38l0.1-0.32l0.06-0.25c0-0.04,0.01-0.09,0.01-0.19v-0.43
		c0-0.58-0.03-1.08-0.12-1.5C161.22,180.69,161.03,180.31,160.74,180 M153.46,175.65h3.78l0.59,0.02l0.49,0.06
		c0.21,0.04,0.37,0.13,0.46,0.24c0.1,0.1,0.18,0.21,0.18,0.35c0.02,0.07,0.04,0.12,0.05,0.14c0.01,0.03,0.02,0.08,0.02,0.15
		c0.01,0.07,0.01,0.12,0.01,0.16v0.14l-0.01,0.58l-0.06,0.46c-0.05,0.25-0.14,0.44-0.28,0.57c-0.24,0.23-0.71,0.35-1.39,0.35h-3.84
		V175.65z M159.4,182.8l-0.04,0.33c-0.03,0.1-0.05,0.21-0.08,0.3l-0.09,0.18c-0.12,0.16-0.28,0.26-0.48,0.34
		c-0.2,0.07-0.5,0.12-0.91,0.12h-4.34v-3.52h4.52c0.95,0,1.42,0.61,1.42,1.81V182.8z M171.26,172.09l-2.87-1.57l-1.1,1.01l3.21,1.42
		L171.26,172.09z M185.43,183.51l-6.33-9.57h-2.8v11.83h2.05v-9.49l6.35,9.49l2.75-0.01v-11.83h-2.02V183.51z M194.18,181.28h3.9
		v1.12c0,0.36-0.04,0.65-0.11,0.89c-0.07,0.25-0.17,0.41-0.27,0.5c-0.13,0.08-0.26,0.14-0.38,0.19c-0.06,0.01-0.12,0.03-0.18,0.05
		c-0.07,0.01-0.14,0.02-0.19,0.02l-0.41,0.08l-0.3,0.03c0,0-0.06,0.01-0.11,0.04h-0.56c-0.07-0.03-0.13-0.04-0.17-0.04h-1
		l-0.32,0.04l-0.53-0.04l-0.72-0.1l-0.46-0.17c-0.16-0.05-0.26-0.11-0.32-0.18c-0.23-0.15-0.37-0.36-0.47-0.63
		c-0.09-0.28-0.14-0.63-0.14-1.06v-4.52l0.02-0.33l0.05-0.36l0.04-0.26c0.12-0.3,0.24-0.51,0.41-0.61c0.18-0.13,0.41-0.23,0.67-0.28
		c0.26-0.03,0.58-0.07,0.95-0.07l1.51-0.03l1.2,0.03c0.05,0,0.13,0,0.22,0.01c0.08,0,0.22,0.02,0.39,0.04l0.3,0.05
		c0.29,0.06,0.47,0.16,0.59,0.27c0.1,0.08,0.15,0.21,0.18,0.39c0.04,0.19,0.07,0.43,0.07,0.72v0.77h1.99v-1.13c0-0.14,0-0.27,0-0.35
		c-0.02-0.11-0.03-0.21-0.06-0.32c-0.05-0.21-0.1-0.39-0.16-0.56c-0.17-0.35-0.41-0.65-0.72-0.9c-0.61-0.47-1.45-0.71-2.51-0.71
		h-3.29c-0.16,0-0.3,0.01-0.44,0.02c-0.12,0-0.26,0.02-0.41,0.04c-0.14,0.03-0.28,0.05-0.39,0.09c-0.13,0.02-0.25,0.06-0.36,0.09
		c-0.5,0.18-0.91,0.41-1.21,0.72c-0.7,0.71-1.05,1.77-1.05,3.19v4.28l0.04,0.52l0.08,0.48l0.11,0.4c0.22,0.58,0.51,1.01,0.83,1.31
		c0.28,0.28,0.61,0.46,0.95,0.57c0.18,0.07,0.36,0.14,0.53,0.16c0.17,0.03,0.29,0.07,0.34,0.08c0.07,0,0.16,0.01,0.28,0.01
		c0.45,0.05,0.89,0.08,1.34,0.08h0.96l0.9-0.04H197l0.3-0.04l0.62-0.12c0.21-0.07,0.41-0.14,0.58-0.21l0.27-0.13l0.25-0.16
		c0.36-0.28,0.62-0.65,0.79-1.11c0.17-0.46,0.27-1.04,0.27-1.71v-2.78h-5.89V181.28z M216.09,181.03c-0.05-0.17-0.08-0.3-0.08-0.35
		c-0.14-0.53-0.45-0.93-0.88-1.21c-0.23-0.15-0.41-0.22-0.56-0.28c-0.04-0.02-0.1-0.04-0.17-0.04c-0.06-0.02-0.1-0.03-0.15-0.04
		l-0.28-0.06l-0.83-0.11c-0.29-0.03-0.49-0.04-0.64-0.04h-1.83l-0.49-0.02l-0.45-0.04c-0.29-0.04-0.52-0.13-0.7-0.2
		c-0.19-0.11-0.32-0.27-0.41-0.5c-0.09-0.24-0.12-0.55-0.12-0.97l0.01-0.49l0.06-0.38l0.09-0.27l0.11-0.1
		c0.18-0.15,0.45-0.23,0.82-0.3c0.34-0.05,0.81-0.09,1.37-0.09h0.33l1.24,0.04l0.19,0.02l0.2,0.02l0.37,0.07l0.24,0.13l0.15,0.11
		c0.11,0.12,0.18,0.25,0.2,0.42l0.07,0.46l0.05,0.79h1.96v-0.61c0-0.57-0.09-1.06-0.24-1.47c-0.16-0.42-0.42-0.76-0.74-1.01
		c-0.34-0.26-0.81-0.44-1.42-0.52c-0.61-0.11-1.37-0.15-2.26-0.15c-0.89,0-1.65,0.05-2.29,0.15c-0.63,0.09-1.14,0.29-1.54,0.59
		c-0.66,0.54-1.01,1.48-1.01,2.86l0.02,0.4l0.04,0.37l0.09,0.39l0.09,0.24c0.16,0.45,0.41,0.78,0.74,1.01l0.24,0.18
		c1.59,0.71,3.39,0.44,5.07,0.61l0.61,0.1c0.22,0.01,0.38,0.09,0.51,0.2c0.13,0.12,0.21,0.26,0.24,0.45
		c0.06,0.19,0.09,0.46,0.09,0.78v0.2c0,0.37-0.02,0.68-0.09,0.95c-0.07,0.25-0.18,0.43-0.34,0.52l-0.3,0.15
		c-0.07,0.04-0.13,0.06-0.18,0.06l-0.21,0.03l-0.52,0.08l-0.59,0.03l-0.13-0.03H211l-0.7-0.02h-0.92l-0.2-0.04l-0.2-0.08l-0.17-0.12
		c-0.15-0.12-0.23-0.28-0.25-0.42l-0.07-0.41v-0.28l-0.04-0.27v-0.26c0.02-0.09,0.04-0.21,0.04-0.38v-0.22h-2.02l-0.02,0.97v0.4
		l0.02,0.38l0.09,0.45l0.09,0.23c0.17,0.46,0.43,0.81,0.79,1.08c0.4,0.28,0.87,0.48,1.38,0.57l0.43,0.07l0.29,0.03h0.09l0.41,0.04
		h1.04c0.78,0,1.52-0.04,2.26-0.12c0.73-0.07,1.29-0.26,1.7-0.48c0.42-0.29,0.72-0.7,0.89-1.21c0.12-0.27,0.19-0.55,0.23-0.82
		c0.04-0.26,0.07-0.6,0.07-0.99v-0.42l-0.05-0.4L216.09,181.03z M221.54,173.93l-4.66,11.83h2.09l0.95-2.37h5.7l0.99,2.37h2.09
		l-4.81-11.83H221.54z M220.53,181.75l2.22-5.62l2.26,5.62H220.53z M225.14,171.5l-1.04-1.03l-2.94,1.6l0.82,0.84L225.14,171.5z
		 M239.01,183.51l-6.32-9.57h-2.79v11.83h2.04v-9.47l6.35,9.47l2.76-0.01v-11.83h-2.05V183.51z M247.78,179.57v1.71h3.88v1.12
		c0,0.36-0.02,0.65-0.1,0.89c-0.07,0.25-0.16,0.41-0.27,0.5c-0.13,0.08-0.26,0.14-0.37,0.19c-0.06,0.01-0.12,0.03-0.18,0.05
		c-0.06,0.01-0.14,0.02-0.2,0.02l-0.41,0.08l-0.29,0.03c0,0-0.06,0.01-0.1,0.04h-0.57c-0.07-0.03-0.14-0.04-0.17-0.04h-1.01
		l-0.3,0.04l-0.53-0.04l-0.72-0.1l-0.47-0.17c-0.15-0.05-0.25-0.11-0.33-0.18c-0.21-0.15-0.37-0.36-0.46-0.63
		c-0.1-0.28-0.15-0.63-0.15-1.06v-4.52l0.03-0.33l0.05-0.36l0.05-0.26c0.1-0.3,0.23-0.51,0.39-0.61c0.18-0.13,0.41-0.23,0.68-0.28
		c0.27-0.03,0.6-0.07,0.95-0.07l1.51-0.03l1.19,0.03c0.05,0,0.13,0,0.22,0.01c0.09,0,0.23,0.02,0.39,0.04l0.31,0.05
		c0.27,0.06,0.47,0.16,0.57,0.27c0.09,0.08,0.16,0.21,0.18,0.39c0.05,0.19,0.08,0.43,0.08,0.72v0.77h1.98v-1.13
		c0-0.14,0-0.27-0.02-0.35c0-0.11-0.01-0.21-0.03-0.32c-0.06-0.21-0.11-0.39-0.18-0.56c-0.16-0.35-0.4-0.65-0.71-0.9
		c-0.61-0.47-1.45-0.71-2.51-0.71h-3.29c-0.16,0-0.31,0.01-0.44,0.02c-0.13,0-0.26,0.02-0.42,0.04c-0.14,0.03-0.27,0.05-0.41,0.09
		c-0.11,0.02-0.23,0.06-0.34,0.09c-0.5,0.18-0.91,0.41-1.2,0.72c-0.71,0.71-1.04,1.77-1.04,3.19v4.28l0.05,0.52l0.08,0.48l0.11,0.4
		c0.23,0.58,0.5,1.01,0.84,1.31c0.27,0.28,0.6,0.46,0.95,0.57c0.17,0.07,0.36,0.14,0.53,0.16c0.16,0.03,0.27,0.07,0.35,0.08
		c0.07,0,0.15,0.01,0.29,0.01c0.44,0.05,0.88,0.08,1.32,0.08h0.97l0.89-0.04h1.2l0.3-0.04l0.6-0.12c0.23-0.07,0.41-0.14,0.58-0.21
		l0.27-0.13l0.25-0.16c0.35-0.28,0.62-0.65,0.8-1.11c0.17-0.46,0.26-1.04,0.26-1.71v-2.78H247.78z M174.3,173.05v1.99
		c0,0.15-0.03,0.26-0.1,0.33c-0.04,0.04-0.08,0.07-0.08,0.07c-0.08,0-0.12,0.02-0.18,0.02v-0.19v-0.22v-1.16h-0.25h-0.4h-1.37V182
		l-0.04,0.68l-0.06,0.51c-0.02,0.14-0.06,0.25-0.1,0.35c-0.06,0.09-0.11,0.16-0.21,0.24c-0.09,0.09-0.19,0.16-0.31,0.19l-0.18,0.08
		l-0.25,0.03l-0.42,0.08h-0.33l-0.17,0.04h-0.63c-0.05-0.02-0.1-0.03-0.18-0.03c-0.08-0.01-0.15-0.01-0.24-0.01l-0.35,0.04
		c-0.26,0-0.53-0.02-0.84-0.04l-0.72-0.09c-0.34-0.05-0.6-0.14-0.77-0.25c-0.29-0.19-0.41-0.66-0.41-1.42v-8.52h-2v8.54
		c0,0.37,0.04,0.75,0.12,1.16c0.07,0.21,0.12,0.4,0.2,0.57c0.08,0.14,0.14,0.24,0.17,0.3c0.04,0.07,0.06,0.11,0.08,0.14l0.2,0.24
		l0.16,0.2l0.21,0.16l0.25,0.14c0.48,0.26,0.94,0.41,1.4,0.46c0.44,0.06,1.13,0.08,2.05,0.08l1.33-0.03l1.12-0.11
		c0.73-0.09,1.33-0.31,1.82-0.64c0.38-0.3,0.66-0.67,0.85-1.14c0.17-0.47,0.27-1.03,0.27-1.7v-5.55h0.45l0.43-0.07
		c0.31-0.09,0.53-0.26,0.7-0.5c0.15-0.23,0.23-0.58,0.23-1.03v-2.08H174.3z"/>
	<rect y="104.26" class="st1" width="253.43" height="1.4"/>
	<path class="st2" d="M102.97,12.45c-0.43,0.33-5.66,4.58-6.99,5.65h14.03C108.68,17.02,103.38,12.78,102.97,12.45 M74.53,41.48
		L74.53,41.48c3.9,7.09,18.04,32.87,19.23,35V61.59l-4.23-7.46L74.53,41.48z M85.23,31.82L85.23,31.82h35.05l3.7,2.89
		c0.68-0.57,1.37-1.1,2.03-1.62c-3.64-3.2-7.26-6.34-7.36-6.45H86.67c-0.11,0.11-3.42,3.16-6.77,6.29c0.71,0.58,1.46,1.19,2.23,1.79
		L85.23,31.82z M73.03,79.03L73.03,79.03V58.98l8.2,15.04L73.03,79.03z M126.92,56.55L126.92,56.55v8.05l-14.7,11.88v7.53
		c1.21-0.97,20.5-16.58,20.79-16.8V51.65C132.6,51.98,130.07,54.01,126.92,56.55"/>
	<path class="st3" d="M94.53,78.02c0,0.15-0.11,0.33-0.3,0.37c-0.18,0.04-0.37-0.03-0.45-0.19c0,0-20.84-37.98-20.91-38.11
		c-0.07-0.06-0.19-0.16-0.36-0.3l-8.32-7.01v39.27c0.26,0.19,6.98,5.69,8.06,6.55V57.43c0-0.18,0.11-0.31,0.3-0.38
		c0.16-0.01,0.35,0.07,0.44,0.2c0,0,21.24,39.01,21.29,39.11c0.12,0.11,7.07,5.67,8.16,6.58c0-1.56,0.12-37.44,0.12-37.8l-8.04-6.81
		V78.02z M138.88,34.27L138.88,34.27l-8.77,7.36c-11.25,9.48-26.8,22.54-27.13,22.82l-8.6-7.27c-6.24-5.25-14.65-12.34-20.96-17.67
		l-8.93-7.51c0.63-0.52,6.08-4.93,6.53-5.27c0.49,0.36,31.68,25.63,31.68,25.63c0.14,0.13,0.35,0.13,0.49,0
		c0,0,31.39-25.19,31.87-25.59c0.45,0.34,5.86,4.74,6.48,5.24C141.44,32.14,140.48,32.94,138.88,34.27L138.88,34.27z M139.4,34.87
		L139.4,34.87c0,0-8.36,7.01-16.99,14.27l-19.04,16.03v37.75c1.25-0.99,38.19-31.01,38.48-31.23v-38.8
		C141.05,33.53,139.4,34.87,139.4,34.87 M133.81,67.38L133.81,67.38V50.84c0-0.14-0.1-0.31-0.26-0.36
		c-0.12-0.08-0.27-0.05-0.39,0.05L111.6,67.91c-0.09,0.07-0.14,0.17-0.14,0.3v16.63c0,0.12,0.07,0.27,0.22,0.33
		c0.12,0.06,0.29,0.05,0.41-0.05l21.56-17.43C133.74,67.61,133.81,67.52,133.81,67.38 M86.24,25.95L86.24,25.95
		c0.05-0.05,0.16-0.09,0.27-0.09h32.28c0.12,0,0.18,0.04,0.27,0.09c0,0,3.84,3.37,7.56,6.62c3.85-3.05,6.89-5.5,7.88-6.3
		c-5.42-4.36-11.93-9.65-11.93-9.65s-19.19-15.43-19.6-15.78c-0.29,0.24-20.26,16.45-31.31,25.39c1,0.81,3.93,3.18,7.63,6.19
		C82.76,29.2,86.24,25.95,86.24,25.95 M94.64,18.17L94.64,18.17l8.07-6.51c0.16-0.12,0.35-0.12,0.49,0l8.14,6.51
		c0.13,0.13,0.19,0.28,0.13,0.44c-0.04,0.15-0.2,0.27-0.37,0.27H94.89c-0.15,0-0.3-0.12-0.36-0.27
		C94.47,18.45,94.53,18.3,94.64,18.17"/>
	<path class="st0" d="M94.89,18.87h16.22c0.18,0,0.33-0.1,0.37-0.24c0.07-0.17,0-0.32-0.13-0.45l-8.14-6.51
		c-0.14-0.12-0.35-0.12-0.49,0l-8.07,6.51c-0.12,0.12-0.17,0.28-0.11,0.45C94.58,18.76,94.73,18.87,94.89,18.87 M102.97,12.47
		L102.97,12.47c0.41,0.31,5.71,4.56,7.03,5.64H96C97.31,17.02,102.54,12.78,102.97,12.47 M142.41,31.74L142.41,31.74
		c0.13,0.04,0.23,0.2,0.23,0.34V71.5c0,0-0.05,0.59-0.15,0.65l-39.27,31.9c-0.01,0.03-0.03,0.03-0.03,0.03
		c-0.06,0.09-0.12,0.15-0.2,0.18c-0.14,0.07-0.3,0.07-0.42-0.05l-8.85-7.26c-0.02-0.05-0.06-0.1-0.09-0.11
		c0,0-19.22-35.35-20.6-37.86V79.4c0,0.16-0.08,0.3-0.23,0.35c-0.12,0.08-0.29,0.06-0.41-0.04l-8.84-7.18
		c-0.09-0.07-0.15-0.19-0.15-0.32V31.82l39.3-31.74c0.14-0.11,0.41-0.11,0.54,0L142.41,31.74z M102.97,0.84L102.97,0.84
		c0.41,0.34,19.6,15.78,19.6,15.78s6.52,5.28,11.93,9.64c-1.01,0.8-4.03,3.25-7.88,6.3c-3.73-3.26-7.56-6.62-7.56-6.62
		c-0.09-0.05-0.16-0.09-0.26-0.09h-32.3c-0.11,0-0.21,0.04-0.27,0.09c0,0-3.48,3.25-6.95,6.46c-3.7-3.01-6.63-5.38-7.63-6.19
		C82.71,17.29,102.68,1.09,102.97,0.84 M126.02,33.09L126.02,33.09c-3.64-3.2-7.26-6.34-7.36-6.45H86.67
		c-0.12,0.11-3.42,3.16-6.77,6.28c9.27,7.49,22.74,18.39,23.07,18.65C103.29,51.31,116.71,40.54,126.02,33.09 M102.39,64.99
		l-7.86-6.67v19.69c0,0.17-0.11,0.33-0.3,0.37c-0.18,0.04-0.35-0.03-0.44-0.19c0,0-20.84-37.98-20.91-38.11
		c-0.07-0.05-0.19-0.16-0.36-0.3l-8.32-7.01v39.27c0.26,0.19,6.98,5.69,8.06,6.55V57.43c0-0.18,0.11-0.31,0.29-0.38
		c0.18-0.01,0.36,0.07,0.45,0.2c0,0,21.24,39.01,21.3,39.11c0.12,0.11,7.06,5.66,8.16,6.58 M74.53,41.48L74.53,41.48
		c3.9,7.09,18.04,32.85,19.23,35V57.66L74.53,41.48z M102.99,64.45L102.99,64.45c0.32-0.27,15.87-13.33,27.13-22.81l8.77-7.36h0.01
		c1.58-1.33,2.55-2.14,2.66-2.25c-0.63-0.51-6.03-4.89-6.48-5.24c-0.48,0.4-31.87,25.58-31.87,25.58c-0.14,0.14-0.33,0.14-0.49,0
		c0,0-31.2-25.26-31.68-25.62c-0.45,0.33-5.9,4.74-6.53,5.27l8.93,7.51c6.31,5.35,14.71,12.43,20.96,17.68L102.99,64.45z
		 M141.86,71.68L141.86,71.68V32.9c-0.8,0.63-2.45,1.98-2.45,1.98s-8.36,6.99-16.99,14.27l-19.04,16.03v37.75
		C104.62,101.92,141.57,71.91,141.86,71.68 M133.55,50.48L133.55,50.48c-0.12-0.09-0.27-0.05-0.4,0.05L111.6,67.91
		c-0.1,0.07-0.14,0.17-0.14,0.3v16.62c0,0.13,0.06,0.28,0.22,0.34c0.12,0.06,0.29,0.05,0.41-0.05l21.56-17.43
		c0.1-0.09,0.16-0.18,0.16-0.31V50.84C133.81,50.7,133.7,50.53,133.55,50.48 M133.01,67.2L133.01,67.2V51.65
		c-1.2,0.96-20.52,16.51-20.79,16.73v15.64C113.43,83.04,132.72,67.43,133.01,67.2"/>
</g>
</svg>
